<?xml version="1.0" encoding="UTF-8"?>
<svg id="Layer_2" data-name="Layer 2" xmlns="http://www.w3.org/2000/svg" viewBox="0 0 109.04 31.47">
  <defs>
    <style>
      .cls-1 {
        stroke-width: 0px;
      }
    </style>
  </defs>
  <g id="Layer_1-2" data-name="Layer 1">
    <path class="cls-1" d="m30.36.11h18.65c.23,0,.46.09.63.26l4.2,4.2c.17.17.39.26.63.26h.02c.79,0,1.18-.95.63-1.51l-1.81-1.81c-.56-.56-.16-1.51.63-1.51h19.83c.63,0,1.23.25,1.67.69l8.54,8.54c.44.44,1.04.69,1.67.69h22.2c.67,0,1.21.54,1.21,1.21h0c0,.67-.54,1.21-1.21,1.21l-61.87.13c-.18,0-.36.07-.49.2h0c-.44.44-.13,1.18.49,1.18h38.1c.79,0,1.18.95.63,1.51l-15.84,15.84c-.17.17-.39.26-.63.26h-14.71c-.79,0-1.18-.95-.63-1.51l6.7-6.7c.56-.56.16-1.51-.63-1.51h-.42c-.23,0-.46.09-.63.26l-9.06,9.06c-.17.17-.39.26-.63.26h-21.92c-.79,0-1.18-.95-.63-1.51l7.6-7.6c.56-.56.16-1.51-.63-1.51h0c-.23,0-.46.09-.63.26l-9.85,9.85c-.17.17-.39.26-.63.26H.89c-.79,0-1.18-.96-.62-1.51L29.73.37c.17-.16.39-.26.62-.26Z"/>
  </g>
</svg>